<svg xmlns="http://www.w3.org/2000/svg" width="295.1" height="85.8"><script xmlns="" type="text/javascript"/><path fill-rule="evenodd" d="M38.3 19.1V70h-6.7V22.5h-1.2V70h-6.7V22.5h-1.2V70h-6.7V15.8H35a3.4 3.4 0 0 1 1.3.2 3.2 3.2 0 0 1 1 .8 3.2 3.2 0 0 1 1 2.3Zm139.5 44.2V15.8h6.7v66.7a3.2 3.2 0 0 1-.3 1.4 3.2 3.2 0 0 1-.7 1q-1 .9-2.4.9h-7.9a3.4 3.4 0 0 1-1.3-.2 3.2 3.2 0 0 1-1-.8 3.2 3.2 0 0 1-1-2.3V71.2h6.7v7.9h1.2V70h-4.6a3.4 3.4 0 0 1-1.3-.2 3.2 3.2 0 0 1-1-.8 3.2 3.2 0 0 1-1-2.3V15.8h6.7v47.5h1.2Zm15.8 3.4V39.6h6.7v23.7h1.2v-25h-4.6a3.4 3.4 0 0 1-1.3-.2 3.2 3.2 0 0 1-1-.8 3.2 3.2 0 0 1-1-2.3V3.3a3.4 3.4 0 0 1 .2-1.3 3.2 3.2 0 0 1 .8-1 3.2 3.2 0 0 1 2.3-1h8a3.4 3.4 0 0 1 1.3.2 3.2 3.2 0 0 1 1 .8 3.2 3.2 0 0 1 1 2.3v27.1h-6.7V6.7h-1.2v24.9h4.6a3.2 3.2 0 0 1 1.4.3 3.2 3.2 0 0 1 1 .7q.9 1 .9 2.4v31.7a3.4 3.4 0 0 1-.2 1.3 3.2 3.2 0 0 1-.8 1 3.2 3.2 0 0 1-2.3 1h-8a3.4 3.4 0 0 1-1.3-.2 3.2 3.2 0 0 1-1-.8 3.2 3.2 0 0 1-1-2.3ZM129.2 39v31h-6.7V42.3h-1.2V70h-6.7V0h11.3a3.4 3.4 0 0 1 1.3.2 3.2 3.2 0 0 1 1 .8 3.2 3.2 0 0 1 1 2.3V31q0 1.4-1 2.4a3.1 3.1 0 0 1-2.2 1 3.9 3.9 0 0 1-.1 0h-4.6v1.2h4.6a3.2 3.2 0 0 1 1.4.3 3.2 3.2 0 0 1 1 .7q.9 1 .9 2.4ZM93.6 19.1V70h-6.7V22.5h-1.2V70H79V15.8h11.3a3.4 3.4 0 0 1 1.3.2 3.2 3.2 0 0 1 1 .8 3.2 3.2 0 0 1 1 2.3ZM3.3 0h8a3.2 3.2 0 0 1 1.4.3 3.2 3.2 0 0 1 1 .7q.9 1 .9 2.4V70H7.9V38.4H6.7V70H0V3.4Q0 2 1 1a3.1 3.1 0 0 1 2.2-1 3.9 3.9 0 0 1 .1 0Zm252.3 70h-9.4L241 59.6V15.8h6.7V58l1.2 5.3V15.8h6.7V70Zm20.4 0h-8a3.4 3.4 0 0 1-1.3-.2 3.2 3.2 0 0 1-1-.8 3.2 3.2 0 0 1-1-2.3V19.2q0-1.4 1-2.4a3.1 3.1 0 0 1 2.2-1 3.9 3.9 0 0 1 .1 0h8a3.2 3.2 0 0 1 1.4.3 3.2 3.2 0 0 1 1 .7q.9 1 .9 2.4v23.1h-6.7V22.5h-1.2v40.8h1.2V43.5h6.7v23.2a3.4 3.4 0 0 1-.2 1.3 3.2 3.2 0 0 1-.8 1 3.2 3.2 0 0 1-2.3 1ZM168.7 19.2V70h-11.3a3.4 3.4 0 0 1-1.3-.2 3.2 3.2 0 0 1-1-.8 3.2 3.2 0 0 1-1-2.3V42.9a3.4 3.4 0 0 1 .2-1.3 3.2 3.2 0 0 1 .8-1 3.2 3.2 0 0 1 2.3-1h4.6V22.5h-1.2v15.9h-6.7V19.2q0-1.4 1-2.4a3.1 3.1 0 0 1 2.2-1 3.9 3.9 0 0 1 .1 0h8a3.2 3.2 0 0 1 1.4.3 3.2 3.2 0 0 1 1 .7q.9 1 .9 2.4ZM74.5 70h-8a3.4 3.4 0 0 1-1.3-.2 3.2 3.2 0 0 1-1-.8 3.2 3.2 0 0 1-1-2.3V19.2q0-1.4 1-2.4a3.1 3.1 0 0 1 2.2-1 3.9 3.9 0 0 1 .1 0h8a3.2 3.2 0 0 1 1.4.3 3.2 3.2 0 0 1 1 .7q.9 1 .9 2.4v27.1h-7.9v17h1.2V47.5h6.7v19.2a3.4 3.4 0 0 1-.2 1.3 3.2 3.2 0 0 1-.8 1 3.2 3.2 0 0 1-2.3 1Zm67.2 0h-8a3.4 3.4 0 0 1-1.3-.2 3.2 3.2 0 0 1-1-.8 3.2 3.2 0 0 1-1-2.3V19.2q0-1.4 1-2.4a3.1 3.1 0 0 1 2.2-1 3.9 3.9 0 0 1 .1 0h8a3.2 3.2 0 0 1 1.4.3 3.2 3.2 0 0 1 1 .7q.9 1 .9 2.4v27.1h-7.9v17h1.2V47.5h6.7v19.2a3.4 3.4 0 0 1-.2 1.3 3.2 3.2 0 0 1-.8 1 3.2 3.2 0 0 1-2.3 1Zm79 0h-8a3.4 3.4 0 0 1-1.3-.2 3.2 3.2 0 0 1-1-.8 3.2 3.2 0 0 1-1-2.3V19.2q0-1.4 1-2.4a3.1 3.1 0 0 1 2.2-1 3.9 3.9 0 0 1 .1 0h8a3.2 3.2 0 0 1 1.4.3 3.2 3.2 0 0 1 1 .7q.9 1 .9 2.4v27.1h-7.9v17h1.2V47.5h6.7v19.2a3.4 3.4 0 0 1-.2 1.3 3.2 3.2 0 0 1-.8 1 3.2 3.2 0 0 1-2.3 1Zm71.1 0h-8a3.4 3.4 0 0 1-1.3-.2 3.2 3.2 0 0 1-1-.8 3.2 3.2 0 0 1-1-2.3V19.2q0-1.4 1-2.4a3.1 3.1 0 0 1 2.2-1 3.9 3.9 0 0 1 .1 0h8a3.2 3.2 0 0 1 1.4.3 3.2 3.2 0 0 1 1 .7q.9 1 .9 2.4v27.1h-7.9v17h1.2V47.5h6.7v19.2a3.4 3.4 0 0 1-.2 1.3 3.2 3.2 0 0 1-.8 1 3.2 3.2 0 0 1-2.3 1Zm-59.9-47.5V70h-6.7V15.8h11.3a3.2 3.2 0 0 1 1.4.3 3.2 3.2 0 0 1 1 .7q.9 1 .9 2.4v19.2h-6.7V22.5h-1.2ZM50.8 70H39.5V0h6.7v15.8h4.6a3.2 3.2 0 0 1 1.4.3 3.2 3.2 0 0 1 1 .7q.9 1 .9 2.4v47.5a3.4 3.4 0 0 1-.2 1.3 3.2 3.2 0 0 1-.8 1 3.2 3.2 0 0 1-2.3 1Zm50.7-54.2h4v6.7h-4V70h-6.7V0h6.7v15.8ZM146.2 70V0h6.7v70h-6.7ZM62 70h-6.7V15.8H62V70Zm201.5 0h-6.7V15.8h6.7V70ZM46.2 22.5v40.8h1.2V22.5h-1.2ZM6.7 31.7h1.2v-25H6.7v25Zm114.6-25v21h1.2v-21h-1.2ZM55.3 0H62v14.6h-6.7V0Zm201.5 0h6.7v14.6h-6.7V0ZM69.9 22.5v17.1h1.2V22.5h-1.2Zm67.2 0v17.1h1.2V22.5h-1.2Zm79 0v17.1h1.2V22.5h-1.2Zm71.1 0v17.1h1.2V22.5h-1.2ZM160.8 46.3v17h1.2v-17h-1.2Z" font-size="12"/></svg>